HIERARCHY
ROOT Hips
{
	OFFSET 0.000000 0.000000 0.000000 
	CHANNELS 6 Xposition Yposition Zposition Yrotation Zrotation Xrotation 
	JOINT Lumbar
	{
		OFFSET 0.000000 0.000000 0.000000 
		CHANNELS 3 Zrotation Xrotation Yrotation
		JOINT Neck
		{
			OFFSET 0.000000 0.445665 0.000000 
			CHANNELS 3 Zrotation Xrotation Yrotation
			End Site
			{
				OFFSET 0.000000 0.227535 0.000000 
			}
		}
		JOINT RightShoulder
		{
			OFFSET 0.019635 0.377685 0.194865 
			CHANNELS 3 Zrotation Xrotation Yrotation
			JOINT RightElbow
			{
				OFFSET 0.000000 -0.243375 0.000000 
				CHANNELS 2 Zrotation Yrotation
				JOINT RightWrist
				{
					OFFSET 0.000000 -0.264825 0.000000 
					CHANNELS 2 Zrotation Xrotation
					End Site
					{
						OFFSET 0.006600 -0.176220 0.000990 
					}
				}
			}
		}
		JOINT LeftShoulder
		{
			OFFSET 0.019635 0.377685 -0.194865 
			CHANNELS 3 Zrotation Xrotation Yrotation
			JOINT LeftElbow
			{
				OFFSET 0.000000 -0.243375 0.000000 
				CHANNELS 2 Zrotation Yrotation
				JOINT LeftWrist
				{
					OFFSET 0.000000 -0.264825 0.000000 
					CHANNELS 2 Zrotation Xrotation
					End Site
					{
						OFFSET 0.006600 -0.176220 -0.000990 
					}
				}
			}
		}
	}
	JOINT RightHip
	{
		OFFSET 0.052140 -0.069960 0.075570 
		CHANNELS 3 Zrotation Xrotation Yrotation
		JOINT RightKnee
		{
			OFFSET 0.000000 -0.402270 0.000000 
			CHANNELS 1 Zrotation
			JOINT RightAnkle
			{
				OFFSET 0.000000 -0.404085 0.000000 
				CHANNELS 3 Zrotation Xrotation Yrotation
				End Site
				{
					OFFSET 0.204105 -0.089430 0.008415 
				}
			}
		}
	}
	JOINT LeftHip
	{
		OFFSET 0.052140 -0.069960 -0.075570 
		CHANNELS 3 Zrotation Xrotation Yrotation
		JOINT LeftKnee
		{
			OFFSET 0.000000 -0.402270 0.000000 
			CHANNELS 1 Zrotation
			JOINT LeftAnkle
			{
				OFFSET 0.000000 -0.404085 0.000000 
				CHANNELS 3 Zrotation Xrotation Yrotation
				End Site
				{
					OFFSET 0.204105 -0.089430 -0.008415 
				}
			}
		}
	}
}
MOTION
Frames: 11
Frame Time: 0.02
0 0.95578 0 165.53055 0 -4.80344 5.83274 3.65494 -5.85586 -26.9945 6.53892 4.8095 20.48789 -22.35435 6.59183 6.76089 63.24851 10.35761 -10.05615 22.40543 5.83241 -12.90974 9.91243 -81.92517 -3.96346 3.59001 -3.43786 4.79274 -2.72878 -6.69937 -12.217 -1.61812 -7.88646 -7.44405 6.16998 18.59974 -0.84103 -5.85231 2.20919 5.641
-0.00094 0.95556 -0.00114 165.57089 0 -4.8173 5.94846 3.78274 -5.87016 -27.12305 6.22625 4.57631 20.97897 -21.99867 6.71937 6.82812 63.35619 10.32602 -10.10944 22.94457 6.19524 -13.11382 10.18602 -81.96214 -4.10402 3.77547 -3.42901 4.86146 -2.77579 -6.866 -12.01733 -1.63601 -7.96529 -7.52672 6.24543 18.43787 -0.81147 -5.81298 2.21458 5.66189
-0.00187 0.95533 -0.00229 165.61011 0 -4.83113 6.06309 3.90988 -5.88453 -27.25104 5.9157 4.34449 21.46778 -21.64535 6.84688 6.89592 63.45825 10.29586 -10.16242 23.48043 6.55585 -13.31686 10.4576 -81.9992 -4.24349 3.95952 -3.42005 4.93025 -2.82122 -7.0324 -11.81864 -1.65387 -8.04388 -7.60928 6.32098 18.27767 -0.7823 -5.77406 2.21993 5.68257
-0.00281 0.95511 -0.00346 165.64506 0 -4.84475 6.17573 4.03473 -5.89845 -27.37921 5.61279 4.11859 21.95288 -21.3015 6.97845 6.9661 63.52864 10.27272 -10.21336 24.01107 6.90742 -13.51768 10.72356 -82.03652 -4.38011 4.14023 -3.40998 4.99919 -2.86069 -7.20005 -11.62119 -1.67189 -8.12268 -7.69205 6.39669 18.12239 -0.75416 -5.73621 2.22509 5.70262
-0.00374 0.95488 -0.00453 165.70239 0 -4.8592 6.30035 4.17063 -5.91373 -27.50783 5.27205 3.86451 22.45828 -20.91164 7.09201 7.02302 63.75461 10.21429 -10.27355 24.57251 7.30244 -13.73021 11.01897 -82.07191 -4.53204 4.33921 -3.40509 5.06635 -2.93165 -7.36174 -11.41629 -1.68922 -8.20082 -7.77348 6.47041 17.9408 -0.72029 -5.69245 2.23118 5.72602
-0.00468 0.95466 -0.00581 165.71249 0 -4.87208 6.39853 4.28377 -5.92678 -27.63444 5.00986 3.66813 22.91979 -20.61666 7.24116 7.10834 63.65954 10.22929 -10.31513 25.0661 7.60817 -13.91781 11.252 -82.11171 -4.65127 4.49899 -3.38975 5.13789 -2.93601 -7.53543 -11.22798 -1.70788 -8.27997 -7.85783 6.54904 17.8152 -0.69876 -5.66139 2.23534 5.74231
-0.00563 0.95446 -0.00763 165.58614 0 -4.87903 6.43221 4.32848 -5.92825 -27.76744 4.98126 3.65046 23.27261 -20.61003 7.51704 7.27368 62.56921 10.46643 -10.29539 25.39791 7.64055 -14.03844 11.31112 -82.16202 -4.68149 4.55394 -3.34003 5.2183 -2.74895 -7.75185 -11.07619 -1.73172 -8.36715 -7.95174 6.63743 17.84512 -0.71021 -5.66464 2.23375 5.73889
-0.00658 0.95426 -0.00966 165.41301 0 -4.88466 6.43776 4.35114 -5.9284 -27.89685 5.0293 3.68795 23.57937 -20.69503 7.82416 7.46744 61.17108 10.7748 -10.25826 25.65729 7.58716 -14.1335 11.30748 -82.21697 -4.67844 4.56873 -3.28079 5.30386 -2.49574 -7.97874 -10.94254 -1.75666 -8.45455 -8.0485 6.73157 17.93142 -0.73422 -5.68087 2.23026 5.72839
-0.00754 0.95406 -0.01162 165.2651 0 -4.89195 6.45053 4.38776 -5.93274 -28.01969 5.03088 3.68697 23.89928 -20.72009 8.09856 7.64757 59.98622 11.03782 -10.23601 25.93302 7.59119 -14.23944 11.33387 -82.2712 -4.68981 4.5997 -3.22935 5.38926 -2.27758 -8.19501 -10.80663 -1.78013 -8.53846 -8.14302 6.82568 17.99141 -0.75336 -5.69161 2.2279 5.72108
-0.0085 0.95384 -0.01346 165.10071 0 -4.89487 6.48635 4.40836 -5.92214 -28.17514 5.07982 3.74058 24.25129 -20.81956 8.45017 7.83131 58.50183 11.35401 -10.18592 26.27689 7.51976 -14.34929 11.35446 -82.32036 -4.70424 4.63938 -3.16302 5.46534 -2.0388 -8.43645 -10.64609 -1.80768 -8.63639 -8.24123 6.90889 18.0544 -0.76944 -5.70052 2.22445 5.71356
-0.00944 0.95367 -0.0156 164.95924 0 -4.90647 6.46802 4.45632 -5.94206 -28.2643 5.05053 3.69609 24.52638 -20.78937 8.64955 8.01353 57.55552 11.57838 -10.18765 26.4638 7.58212 -14.44388 11.37152 -82.38018 -4.70428 4.65142 -3.12575 5.5622 -1.82672 -8.62739 -10.54042 -1.82699 -8.70554 -8.33277 7.01614 18.12442 -0.7943 -5.71644 2.22276 5.70521
